# xmcd
#
# Track frame offsets: 
#        150
#        9287
#        19370
#        28497
#        38482
#        47755
#        56921
#        68085
#        78935
#        90225
#        100058
#        110808
#        121824
#        133542
#        145445
#        155838
#        168528
#        178057
#        190835
#        203998
#
# Disc length: 2877 seconds
#
# Revision: 0
# Processed by: cddbd v1.5.2PL0 Copyright (c) Steve Scherf et al.
# Submitted via: ExactAudioCopyFreeDBPlugin 1.0
#
DISCID=170b3b14
DTITLE=Lynn Anderson - Definitive Collection CD 1
DYEAR=1900
DGENRE=Country
TTITLE0=Ride, Ride, Ride
TTITLE1=If I Kiss You (Will You Go Away)
TTITLE2=Beggars Can't Be Choosers
TTITLE3=Promises, Promises
TTITLE4=Mother, May I
TTITLE5=No Another Time
TTITLE6=Big Girls Don't Cry
TTITLE7=Flattery Will Get You Everywhere
TTITLE8=Our House Is Not A Home (If It's Never Been Loved In)
TTITLE9=That's A No No
TTITLE10=He'd Still Love Me
TTITLE11=I've Been Everywhere
TTITLE12=Auctioneer
TTITLE13=Rocky Top
TTITLE14=It Wasn't Got Who Made Honky Tonk Angels
TTITLE15=I'm Alright
TTITLE16=Stay There Till I Get There (single version)
TTITLE17=No Love At All
TTITLE18=Rose Garden
TTITLE19=You're My Man
EXTD=
EXTT0=
EXTT1=
EXTT2=
EXTT3=
EXTT4=
EXTT5=
EXTT6=
EXTT7=
EXTT8=
EXTT9=
EXTT10=
EXTT11=
EXTT12=
EXTT13=
EXTT14=
EXTT15=
EXTT16=
EXTT17=
EXTT18=
EXTT19=
PLAYORDER=
